<?xml version="1.0" standalone="no"?><!DOCTYPE svg PUBLIC "-//W3C//DTD SVG 1.1//EN" "http://www.w3.org/Graphics/SVG/1.1/DTD/svg11.dtd"><svg t="1542876790997" class="icon" style="" viewBox="0 0 1024 1024" version="1.1" xmlns="http://www.w3.org/2000/svg" p-id="5791" xmlns:xlink="http://www.w3.org/1999/xlink" width="200" height="200"><defs><style type="text/css"></style></defs><path d="M722.857143 707.428571q0-32.571429-3.142857-61.142857t-12-57.428571-22.571429-49.142857-36.571428-33.142857-52-12.857143q-3.428571 2.285714-19.142858 11.714285T553.142857 519.428571t-23.142857 11.428572-28 9.714286-26.571429 2.857142-26.571428-2.857142-28-9.714286-23.142857-11.428572-24.285715-14T354.285714 493.714286q-29.142857 0-52 12.857143t-36.571428 33.142857-22.571429 49.142857-12 57.428571-3.142857 61.142857q0 41.714286 24 69.428572t58.857143 27.714286h329.142857q34.857143 0 58.857143-27.714286t24-69.428572z m-98.857143-339.428571q0-61.714286-43.714286-105.142857T475.428571 219.428571t-104.857142 43.428572T326.857143 368q0 61.142857 43.714286 104.571429T475.428571 516t104.857143-43.428571 43.714286-104.571429z m363.428571 308.571429v109.714285q0 8-5.142857 13.142857t-13.142857 5.142858h-54.857143v128q0 37.714286-26.857143 64.571428t-64.571428 26.857143H128q-37.714286 0-64.571429-26.857143T36.571429 932.571429V91.428571Q36.571429 53.714286 63.428571 26.857143T128 0h694.857143q37.714286 0 64.571428 26.857143t26.857143 64.571428v128h54.857143q8 0 13.142857 5.142858t5.142857 13.142857v109.714285q0 8-5.142857 13.142858t-13.142857 5.142857h-54.857143v73.142857h54.857143q8 0 13.142857 5.142857t5.142857 13.142857v109.714286q0 8-5.142857 13.142857t-13.142857 5.142857h-54.857143v73.142857h54.857143q8 0 13.142857 5.142857t5.142857 13.142858z" p-id="5792"></path></svg>