<?xml version="1.0" standalone="no"?><!DOCTYPE svg PUBLIC "-//W3C//DTD SVG 1.1//EN" "http://www.w3.org/Graphics/SVG/1.1/DTD/svg11.dtd"><svg t="1542876824353" class="icon" style="" viewBox="0 0 1024 1024" version="1.1" xmlns="http://www.w3.org/2000/svg" p-id="5907" xmlns:xlink="http://www.w3.org/1999/xlink" width="200" height="200"><defs><style type="text/css"></style></defs><path d="M624 368q0 61.142857-43.714286 104.571429T475.428571 516t-104.857142-43.428571T326.857143 368q0-61.714286 43.714286-105.142857T475.428571 219.428571t104.857143 43.428572 43.714286 105.142857z m-27.428571 125.714286q26.285714 0 47.142857 9.714285t34.285714 27.142858 22.571429 38.285714 13.714285 46.285714 6.571429 47.142857 2 45.142857q0 38.285714-22.571429 67.714286T640 804.571429H310.857143q-37.714286 0-60.285714-29.428572T228 707.428571q0-27.428571 2.571429-53.428571T241.142857 597.714286t20.857143-52.285715 36-36.857142 53.428571-14.857143h2.857143q4 2.285714 18.285715 11.142857t20.285714 12 18.857143 9.714286 21.142857 9.142857 20 5.142857T475.428571 543.428571t22.571429-2.571428 20-5.142857 21.142857-9.142857 18.857143-9.714286 20.285714-12 18.285715-11.142857z m390.857142-146.285715q0 7.428571-5.428571 12.857143T969.142857 365.714286h-54.857143v73.142857h54.857143q7.428571 0 12.857143 5.428571t5.428571 12.857143v109.714286q0 7.428571-5.428571 12.857143t-12.857143 5.428571h-54.857143v73.142857h54.857143q7.428571 0 12.857143 5.428572t5.428571 12.857143v109.714285q0 7.428571-5.428571 12.857143t-12.857143 5.428572h-54.857143v128q0 37.714286-26.857143 64.571428t-64.571428 26.857143H128q-37.714286 0-64.571429-26.857143T36.571429 932.571429V91.428571Q36.571429 53.714286 63.428571 26.857143T128 0h694.857143q37.714286 0 64.571428 26.857143t26.857143 64.571428v128h54.857143q7.428571 0 12.857143 5.428572t5.428571 12.857143v109.714285z m-146.285714 585.142858V91.428571q0-7.428571-5.428571-12.857142T822.857143 73.142857H128q-7.428571 0-12.857143 5.428572T109.714286 91.428571v841.142858q0 7.428571 5.428571 12.857142t12.857143 5.428572h694.857143q7.428571 0 12.857143-5.428572t5.428571-12.857142z" p-id="5908"></path></svg>