<?xml version="1.0" standalone="no"?><!DOCTYPE svg PUBLIC "-//W3C//DTD SVG 1.1//EN" "http://www.w3.org/Graphics/SVG/1.1/DTD/svg11.dtd"><svg t="1507617546055" class="icon" style="" viewBox="0 0 1024 1024" version="1.1" xmlns="http://www.w3.org/2000/svg" p-id="3534" xmlns:xlink="http://www.w3.org/1999/xlink" width="32" height="32"><defs><style type="text/css"></style></defs><path d="M487.936 765.44c1.024 0.512 2.048 1.536 3.072 2.048 21.504 10.24 47.616 6.656 64.512-11.264l389.12-411.136c20.992-22.528 19.968-57.856-2.048-78.848-22.528-20.992-57.856-20.48-78.848 2.048l-349.184 369.152L160.256 269.824c-21.504-22.016-56.832-23.04-78.848-1.536-11.264 10.752-16.896 25.6-16.896 40.448 0 13.824 5.12 28.16 15.872 38.912l392.704 407.552c1.024 1.024 2.048 1.024 2.56 2.048 0.512 0.512 1.024 1.024 1.536 2.048C480.256 761.856 483.84 763.392 487.936 765.44L487.936 765.44 487.936 765.44M487.936 765.44 487.936 765.44z" p-id="3535"></path></svg>