<?xml version="1.0" standalone="no"?><!DOCTYPE svg PUBLIC "-//W3C//DTD SVG 1.1//EN" "http://www.w3.org/Graphics/SVG/1.1/DTD/svg11.dtd"><svg t="1543202531303" class="icon" style="" viewBox="0 0 1024 1024" version="1.1" xmlns="http://www.w3.org/2000/svg" p-id="14281" xmlns:xlink="http://www.w3.org/1999/xlink" width="200" height="200"><defs><style type="text/css"></style></defs><path d="M860.8 294l-135 0-80.8-81.6c0 0-0.4-0.4-0.6-0.4l-0.4-0.4 0 0c-12-12-28.2-19.6-46.6-19.6l-168 0c-19.6 0-37 8.4-49.2 21.8l0 0.2-79 80L163.2 294C126 294 96 323.2 96 360.4l0 404.2c0 37.2 30 67.4 67.2 67.4l697.6 0c37 0 67.2-30.2 67.2-67.4L928 360.4C928 323.2 897.8 294 860.8 294zM512 731c-101.8 0-184.8-83.2-184.8-185.2 0-102.2 83-185.2 184.8-185.2 102 0 184.8 83 184.8 185.2C696.8 647.8 614 731 512 731zM848.2 401c-15.4 0-28-12.6-28-28.2s12.6-28.2 28-28.2c15.4 0 28 12.6 28 28.2S863.6 401 848.2 401z" p-id="14282"></path><path d="M512 405.8c-77.2 0-139.6 62.6-139.6 140 0 77.2 62.4 140 139.6 140 77 0 139.6-62.6 139.6-140C651.6 468.4 589 405.8 512 405.8z" p-id="14283"></path></svg>