<?xml version="1.0" standalone="no"?><!DOCTYPE svg PUBLIC "-//W3C//DTD SVG 1.1//EN" "http://www.w3.org/Graphics/SVG/1.1/DTD/svg11.dtd"><svg t="1505820380830" class="icon" style="" viewBox="0 0 1024 1024" version="1.1" xmlns="http://www.w3.org/2000/svg" p-id="5130" xmlns:xlink="http://www.w3.org/1999/xlink" width="32" height="32"><defs><style type="text/css"></style></defs><path d="M511.999488 63.792908c-247.531538 0-448.22648 200.665229-448.22648 448.208115 0 247.521396 200.694941 448.208115 448.22648 448.208115 247.553029 0 448.22648-200.666252 448.22648-448.208115C960.225968 264.457114 759.552517 63.792908 511.999488 63.792908zM511.999488 857.676927c-190.911733 0-345.690067-154.771993-345.690067-345.675904s154.778334-345.675904 345.690067-345.675904c190.934247 0 345.691091 154.771993 345.691091 345.675904S702.933735 857.676927 511.999488 857.676927z" p-id="5131"></path><path d="M688.839161 374.47481l-39.306802-39.306214c-10.855677-10.855232-28.429634-10.855232-39.286335 0l-98.246537 98.242512-98.246537-98.242512c-10.855677-10.855232-28.429634-10.855232-39.285311 0l-39.285311 39.306214c-10.855677 10.855232-10.855677 28.428469 0 39.283702l98.225047 98.242512-98.225047 98.242512c-10.855677 10.854209-10.855677 28.428469 0 39.283702l39.285311 39.306214c10.855677 10.854209 28.429634 10.854209 39.285311 0l98.246537-98.243535 98.246537 98.243535c10.855677 10.854209 28.429634 10.854209 39.286335 0l39.306802-39.306214c10.855677-10.854209 10.855677-28.428469 0-39.283702l-98.246537-98.242512 98.246537-98.242512C699.694838 402.90328 699.694838 385.329019 688.839161 374.47481z" p-id="5132"></path></svg>