<?xml version="1.0" standalone="no"?><!DOCTYPE svg PUBLIC "-//W3C//DTD SVG 1.1//EN" "http://www.w3.org/Graphics/SVG/1.1/DTD/svg11.dtd"><svg t="1542877428813" class="icon" style="" viewBox="0 0 1024 1024" version="1.1" xmlns="http://www.w3.org/2000/svg" p-id="8842" xmlns:xlink="http://www.w3.org/1999/xlink" width="200" height="200"><defs><style type="text/css"></style></defs><path d="M143.67219 926.048107c-18.079774 0-34.078143-13.256932-37.977963-32.039717l-0.320295-1.543146 0-0.756223c-2.798742-17.730826 7.284917-29.372981 14.70798-37.941124 0.952698-1.099031 1.914606-2.208295 2.860141-3.343141l0.308015-0.35918c4.486174-5.055133 9.103332-10.05603 13.568017-14.891152 26.720571-28.937053 54.30379-58.811454 74.233702-122.434493-50.757011-30.584576-92.885504-69.037353-122.314767-111.747083-33.395598-48.463782-50.328245-100.775194-50.328245-155.479097 0-47.584762 13.014408-93.689822 38.681998-137.034003 24.518417-41.402969 59.488883-78.504982 103.94028-110.274546C271.486204 133.557832 391.459646 97.953939 518.853082 97.953939c127.46916 0 247.442602 35.534308 337.815889 100.056833 44.462654 31.743982 79.43619 68.840878 103.94949 110.259196 25.665543 43.367717 38.679951 89.543386 38.679951 137.243781s-13.014408 93.876064-38.680974 137.243781c-24.512277 41.419342-59.485813 78.515215-103.948467 110.259196-90.373287 64.523549-210.346729 100.056833-337.815889 100.056833-22.528086 0-46.109154-1.195222-70.193689-3.555989-68.905346 59.646472-149.57462 101.516068-239.909022 124.503619-17.920138 4.964058-37.929868 8.828063-61.163011 11.812023l-0.576121 0.063445C145.891741 925.997965 144.777361 926.048107 143.67219 926.048107zM136.074142 888.979864c1.37737 4.238534 4.949732 6.532787 7.980765 6.356778 21.379936-2.759857 40.437991-6.440689 56.648185-10.939143l0.323365-0.086981c87.839581-22.327518 166.020174-63.452147 232.369302-122.229832l5.070482-4.492314 6.735401 0.718361c25.338085 2.700505 50.119491 4.069689 73.652464 4.069689 247.991094 0 449.746144-142.142347 449.746144-316.860624S766.844176 128.653125 518.853082 128.653125c-121.045867 0-234.679927 33.570583-319.971475 94.528933C115.195625 282.993283 69.107961 361.952612 69.107961 445.514773c0 96.270601 61.110823 186.193633 167.663604 246.709915l10.450003 5.935176-3.254114 11.568477c-22.1116 78.610382-55.307653 114.558106-84.594677 146.274458-4.510734 4.88424-8.773827 9.501398-13.007245 14.267958-1.020236 1.218758-2.054799 2.413979-3.080152 3.598968-6.972808 8.048303-8.16496 10.193153-7.506974 13.496385L136.074142 888.979864z" p-id="8843"></path></svg>