<?xml version="1.0" standalone="no"?><!DOCTYPE svg PUBLIC "-//W3C//DTD SVG 1.1//EN" "http://www.w3.org/Graphics/SVG/1.1/DTD/svg11.dtd"><svg t="1542874160990" class="icon" style="" viewBox="0 0 1024 1024" version="1.1" xmlns="http://www.w3.org/2000/svg" p-id="1943" xmlns:xlink="http://www.w3.org/1999/xlink" width="200" height="200"><defs><style type="text/css"></style></defs><path d="M1023.910773 511.955387c0 202.258946-229.136604 365.682419-511.955386 365.682419-28.011273 0-55.985978-1.718707-82.863636-4.57103-74.855191 66.298223-163.971997 113.14214-262.815955 138.264522-20.551352 5.704646-42.85798 9.727152-65.128039 12.579475-12.579475 1.133615-24.573859-8.008445-27.426181-21.721535v-0.585092c-2.852323-14.298183 6.838261-22.855151 15.431798-33.130827 35.98315-40.55418 77.122422-74.855191 104.00008-170.261735C75.440283 731.364838 0.036568 627.94985 0.036568 511.955387c0-201.710422 229.136604-365.682419 511.955387-365.682419s511.955387 163.423473 511.955387 365.682419z" fill="" p-id="1944"></path></svg>