<?xml version="1.0" standalone="no"?><!DOCTYPE svg PUBLIC "-//W3C//DTD SVG 1.1//EN" "http://www.w3.org/Graphics/SVG/1.1/DTD/svg11.dtd"><svg t="1542874278346" class="icon" style="" viewBox="0 0 1024 1024" version="1.1" xmlns="http://www.w3.org/2000/svg" p-id="4230" xmlns:xlink="http://www.w3.org/1999/xlink" width="200" height="200"><defs><style type="text/css"></style></defs><path d="M718.4 281.6l-296 126.4c-6.4 3.2-12.8 8-16 16l-126.4 296c-3.2 8-1.6 16 4.8 20.8s14.4 8 20.8 4.8l296-126.4c6.4-3.2 12.8-8 16-16l126.4-296c3.2-8 1.6-16-4.8-20.8s-14.4-8-20.8-4.8zM684.8 344l-99.2 235.2c-1.6 1.6-3.2 4.8-4.8 4.8l-235.2 99.2c-1.6 0-3.2 0-4.8-1.6s-1.6-3.2-1.6-4.8l99.2-235.2c1.6-1.6 3.2-4.8 4.8-4.8l235.2-99.2c1.6 0 3.2 0 4.8 1.6 1.6 1.6 1.6 3.2 1.6 4.8z" p-id="4231"></path><path d="M512 32c-265.6 0-480 214.4-480 480s214.4 480 480 480c265.6 0 480-214.4 480-480 0-265.6-214.4-480-480-480zM512 953.6c-243.2 0-441.6-198.4-441.6-441.6s198.4-441.6 441.6-441.6c243.2 0 441.6 196.8 441.6 441.6 0 243.2-198.4 441.6-441.6 441.6z" p-id="4232"></path><path d="M512 454.4c-32 0-57.6 25.6-57.6 57.6s25.6 57.6 57.6 57.6c32 0 57.6-25.6 57.6-57.6s-25.6-57.6-57.6-57.6zM512 531.2c-9.6 0-19.2-8-19.2-19.2s8-19.2 19.2-19.2c9.6 0 19.2 8 19.2 19.2s-9.6 19.2-19.2 19.2z" p-id="4233"></path></svg>