<?xml version="1.0" standalone="no"?><!DOCTYPE svg PUBLIC "-//W3C//DTD SVG 1.1//EN" "http://www.w3.org/Graphics/SVG/1.1/DTD/svg11.dtd"><svg t="1542877309693" class="icon" style="" viewBox="0 0 1024 1024" version="1.1" xmlns="http://www.w3.org/2000/svg" p-id="8120" xmlns:xlink="http://www.w3.org/1999/xlink" width="200" height="200"><defs><style type="text/css"></style></defs><path d="M605.44 605.44 256 768 418.56 418.56 768 256M512 85.333333C276.48 85.333333 85.333333 276.48 85.333333 512 85.333333 747.52 276.48 938.666667 512 938.666667 747.52 938.666667 938.666667 747.52 938.666667 512 938.666667 276.48 747.52 85.333333 512 85.333333M512 465.066667C485.973333 465.066667 465.066667 485.973333 465.066667 512 465.066667 538.026667 485.973333 558.933333 512 558.933333 538.026667 558.933333 558.933333 538.026667 558.933333 512 558.933333 485.973333 538.026667 465.066667 512 465.066667Z" p-id="8121"></path></svg>