<?xml version="1.0" standalone="no"?><!DOCTYPE svg PUBLIC "-//W3C//DTD SVG 1.1//EN" "http://www.w3.org/Graphics/SVG/1.1/DTD/svg11.dtd"><svg t="1543105424898" class="icon" style="" viewBox="0 0 1356 1024" version="1.1" xmlns="http://www.w3.org/2000/svg" p-id="9570" xmlns:xlink="http://www.w3.org/1999/xlink" width="264.84375" height="200"><defs><style type="text/css"></style></defs><path d="M83.36784359 962v-79.98438076s-4.99023809-124.96680967 105.00585644-139.93752481c61.28855947-8.3639206 225.3338543-25.51347158 214.93166748-140.00780917C398.31512942 546.96680967 302.16518773 472.11323662 308.27998724 267.16204619c5.06052334-164.95900049 200.0312376-269.89457256 364.99023808-159.89847715 83.1472084 55.4549001 94.95509589 144.92776289 74.92385743 260.05466602-19.75009747 113.51034756-84.97461973 209.80085888-89.96485694 234.7520502s0 100.01561924 129.95704775 119.97657157c114.91604825 17.71183125 184.99023808 44.98242891 194.97071427 134.94728585 1.54627119 14.05700859 0 105.00585732 0 105.00585732" p-id="9571"></path><path d="M853.76222034 554.41702461m42.17102666 0l337.36821592 0q42.17102666 0 42.17102666 42.17102666l0 0q0 42.17102666-42.17102666 42.17102754l-337.36821592 0q-42.17102666 0-42.17102666-42.17102754l0 0q0-42.17102666 42.17102666-42.17102666Z" p-id="9572"></path><path d="M853.76222034 383.06208535m42.17102666 1e-8l337.36821592 0q42.17102666 0 42.17102666 42.17102665l0 0q0 42.17102666-42.17102666 42.17102666l-337.36821592 0q-42.17102666 0-42.17102666-42.17102666l0 0q0-42.17102666 42.17102666-42.17102665Z" p-id="9573"></path><path d="M853.76222034 211.77743047m42.17102666 0l337.36821592 0q42.17102666 0 42.17102666 42.17102753l0 0q0 42.17102666-42.17102666 42.17102667l-337.36821592 0q-42.17102666 0-42.17102666-42.17102667l0 0q0-42.17102666 42.17102666-42.17102753Z" p-id="9574"></path></svg>