<?xml version="1.0" standalone="no"?><!DOCTYPE svg PUBLIC "-//W3C//DTD SVG 1.1//EN" "http://www.w3.org/Graphics/SVG/1.1/DTD/svg11.dtd"><svg t="1543105468808" class="icon" style="" viewBox="0 0 1413 1024" version="1.1" xmlns="http://www.w3.org/2000/svg" p-id="9695" xmlns:xlink="http://www.w3.org/1999/xlink" width="275.9765625" height="200"><defs><style type="text/css"></style></defs><path d="M953.50574955 961.99972051h-1.18853351a30.0629127 30.0629127 0 0 1-29.29386182-30.55230967c0.6991374-39.99066592 0.97879219-87.39218935 0-94.10390947-6.43206533-58.09832754-44.53505948-82.28848535-156.60680272-99.55718174-60.40548105-9.2985293-103.40243789-31.60101533-127.66251007-66.34814942a107.66717666 107.66717666 0 0 1-18.52714423-81.16986532c2.23724003-11.25611367 9.01887364-24.67955391 20.27498818-47.05195518C661.26626966 502.45663291 692.30797542 440.51304922 704.26322649 371.71791846c19.29619512-111.02303672 2.79655049-172.54713779-57.04962099-212.39797676-64.04099589-42.71730205-139.82750244-48.93962607-202.26048223-16.63947246a164.29731592 164.29731592 0 0 0-91.5171003 141.78508769c-3.7054292 122.69863388 34.95687539 193.17169511 60.75504932 239.73425244 14.40223242 26.07782959 25.72826045 46.70238604 27.96550049 69.14470079 3.63551484 39.43135547-8.04008144 93.82425381-83.89650146 128.85104355-46.77229951 21.53343516-102.2139044 28.8743792-135.28310889 33.34885928l-6.9913749 0.90887871c-74.80771347 10.13749365-72.57047344 96.06149385-72.43064649 99.69700957v75.78650566a30.0629127 30.0629127 0 0 1-60.12582627 0V857.61848955c-1.81775742-49.70867695 21.60334951-146.81887734 123.95708174-160.80162803l6.9913749-0.97879219c122.06940997-16.21999073 172.12765605-45.30411123 167.44343468-97.11020039-0.90887872-9.92775234-9.9976667-26.42739785-20.55464297-45.51385253-28.52481094-52.36539961-72.08107734-131.43785273-68.16590772-270.56621778A223.72400391 223.72400391 0 0 1 417.4071054 89.26636308c82.28848535-42.43764727 180.65713359-34.95687539 263.15535938 20.06524688 103.54226573 69.00487295 98.71821651 181.77575362 82.91770927 272.66362998-13.49335371 77.53435049-48.31040214 146.81887734-69.07478642 188.13790459a336.84445372 336.84445372 0 0 0-15.03145635 32.02049795 47.19178213 47.19178213 0 0 0 8.80913232 34.95687539c13.98275068 20.48472949 44.60497295 34.95687539 87.60193067 41.38894072 93.61451338 14.40223242 194.6398834 39.29152852 207.15444492 152.34206397 1.53810263 13.98275068 0.55931045 81.44952011 0 101.79442265a30.55230967 30.55230967 0 0 1-9.50826973 21.60334864 29.15403398 29.15403398 0 0 1-19.92541992 7.76042665z" p-id="9696"></path><path d="M906.03431263 523.15110372m41.94825117 0l335.58600586 0q41.94825117 0 41.94825117 41.94825029l0 0q0 41.94825117-41.94825117 41.94825117l-335.58600586 0q-41.94825117 0-41.94825117-41.94825117l0 0q0-41.94825117 41.94825117-41.94825029Z" p-id="9697"></path><path d="M906.03431263 352.7712916m41.94825117 1e-8l335.58600586 0q41.94825117 0 41.94825117 41.94825116l0 0q0 41.94825117-41.94825117 41.9482503l-335.58600586 0q-41.94825117 0-41.94825117-41.9482503l0 0q0-41.94825117 41.94825117-41.94825116Z" p-id="9698"></path><path d="M906.03431263 182.39147949m41.94825117 1e-8l335.58600586 0q41.94825117 0 41.94825117 41.94825116l0 0q0 41.94825117-41.94825117 41.9482503l-335.58600586 0q-41.94825117 0-41.94825117-41.9482503l0 0q0-41.94825117 41.94825117-41.94825116Z" p-id="9699"></path></svg>