<?xml version="1.0" standalone="no"?><!DOCTYPE svg PUBLIC "-//W3C//DTD SVG 1.1//EN" "http://www.w3.org/Graphics/SVG/1.1/DTD/svg11.dtd"><svg t="1570698208696" class="icon" viewBox="0 0 1024 1024" version="1.1" xmlns="http://www.w3.org/2000/svg" p-id="3985" xmlns:xlink="http://www.w3.org/1999/xlink" width="22" height="22"><defs><style type="text/css"></style></defs><path d="M133.521504 339.666026c0-21.878287-0.173962-42.533722 0.304945-63.190181 0.086981-1.723248 4.275373-4.624321 6.718005-4.754281 8.768711-0.588401 17.624403-0.239454 27.788903-0.239454 0-10.665921-0.130983-20.438495 0-30.209022 0.261966-24.473391 13.566994-37.930891 37.996382-37.997406 39.829124-0.151449 79.701227-0.042979 119.574353-0.042979l12.694113 0c0.304945-7.395434 0.610914-13.872962 0.87288-20.329001 2.486634-57.038064 40.135092-102.734826 95.710852-115.952872 4.798283-1.133823 9.772574-1.526773 14.70184-1.526773 39.829124-0.130983 79.745229-0.196475 119.574353-0.042979 34.113959 0.130983 61.596893 15.006785 83.845617 39.785122 22.160719 24.604374 32.19526 54.072523 31.147394 87.051635-0.261966 8.506744 2.050706 11.342326 10.949376 11.211343 40.222073-0.457418 80.399121-0.261966 120.621195-0.174985 26.39209 0.044002 39.392172 13.088086 39.523155 39.437198 0.044002 9.139148 0 18.321274 0 28.791743 9.68457 0 18.49626-0.50142 27.221991 0.283456 2.704598 0.239454 7.240915 3.882424 7.328919 6.107091 0.610914 17.10047 0.348947 34.244942 0.39295 51.389414 0 2.922563 0 5.846148 0 9.881045-3.926426 0.217964-7.066953 0.50142-10.208503 0.523933-16.490579 0.042979-32.980135 0.457418-49.426713-0.152473-8.506744-0.348947-11.255345 2.77009-10.208503 10.731412 0.304945 2.595105 0.044002 5.278213 0.044002 7.895831 0 164.092265-0.174985 328.162018 0.086981 492.232794 0.044002 36.011168-12.520151 65.479317-41.267892 87.554078-18.453281 14.156418-39.742143 20.502963-62.688761 20.569478-136.717801 0.173962-273.436626 0.414439-410.154427-0.086981-60.114123-0.218988-103.389742-45.326325-103.432721-106.443287-0.130983-166.077479-0.042979-332.110957-0.042979-498.165924 0-15.727193 1.39579-14.025435-14.570857-14.112416C170.863994 339.622024 153.109632 339.666026 133.521504 339.666026L133.521504 339.666026zM270.763239 600.952938c0 82.71077-0.042979 165.422564 0.042979 248.133334 0 26.632567 13.088086 41.181935 38.389332 41.224914 135.060045 0.239454 270.164093 0.283456 405.269164-0.261966 8.854669-0.042979 18.758226-3.926426 26.218128-8.965186 11.385305-7.677866 12.476149-20.829398 12.476149-33.765011-0.044002-165.095106-0.130983-330.168722 0.217964-495.243361 0-9.989515-2.399653-12.738116-12.520151-12.628622-90.257653 0.893346-180.560332 1.505283-270.817985 1.592264-62.251809 0.064468-124.546597-0.676405-186.798407-1.549286-9.68457-0.152473-12.782118 1.919722-12.782118 12.345166C270.982226 434.875458 270.72026 517.936199 270.763239 600.952938L270.763239 600.952938zM612.427782 202.642257c7.939833-34.789341-15.225773-67.00609-49.295729-67.813478-34.244942-0.763386-68.533886-0.851391-102.735849 0.064468-34.113959 0.87288-57.888432 34.528398-48.814776 67.747987L612.427782 202.641233 612.427782 202.642257zM612.427782 202.642257" p-id="3986"></path><path d="M407.873989 820.011072l-66.919109 0L340.954881 409.94465l66.919109 0L407.873989 820.011072 407.873989 820.011072zM407.873989 820.011072" p-id="3987"></path><path d="M615.918279 409.573189l66.745147 0 0 410.437883-66.745147 0L615.918279 409.573189 615.918279 409.573189zM615.918279 409.573189" p-id="3988"></path><path d="M478.719524 409.791154l66.265216 0 0 410.154427-66.265216 0L478.719524 409.791154 478.719524 409.791154zM478.719524 409.791154" p-id="3989"></path></svg>