<?xml version="1.0" standalone="no"?><!DOCTYPE svg PUBLIC "-//W3C//DTD SVG 1.1//EN" "http://www.w3.org/Graphics/SVG/1.1/DTD/svg11.dtd"><svg t="1505975144613" class="icon" style="" viewBox="0 0 1024 1024" version="1.1" xmlns="http://www.w3.org/2000/svg" p-id="1874" xmlns:xlink="http://www.w3.org/1999/xlink" width="64" height="64"><defs><style type="text/css"></style></defs><path d="M799.808 170.532c-27.334-22.511-67.531-19.294-90.041 8.039-22.509 27.334-19.294 67.53 8.04 90.041 72.354 61.099 112.55 149.532 112.55 242.788 0 175.258-143.1 318.358-318.358 318.358-175.257 0-318.358-143.1-318.358-318.358 0-93.256 41.805-183.297 112.552-242.788 27.333-22.511 30.549-64.314 8.039-90.041-22.509-27.333-64.314-30.549-90.04-8.039-101.296 85.216-159.18 210.63-159.18 342.476 0 247.611 200.983 446.987 446.987 446.987s446.988-200.983 446.988-446.987c-1.607-133.454-59.49-257.26-159.179-342.476z" p-id="1875"></path><path d="M510.392 644.853c35.373 0 64.314-28.942 64.314-64.314V85.314c0-35.373-28.942-64.314-64.314-64.314s-64.314 28.942-64.314 64.314v495.224c0 35.373 28.941 64.315 64.314 64.315z" p-id="1876"></path></svg>