<?xml version="1.0" standalone="no"?><!DOCTYPE svg PUBLIC "-//W3C//DTD SVG 1.1//EN" "http://www.w3.org/Graphics/SVG/1.1/DTD/svg11.dtd"><svg t="1526959697984" class="icon" style="" viewBox="0 0 1024 1024" version="1.1" xmlns="http://www.w3.org/2000/svg" p-id="2429" xmlns:xlink="http://www.w3.org/1999/xlink" width="30" height="30"><defs><style type="text/css"></style></defs><path d="M678.29248 485.86752H344.61184a27.80672 27.80672 0 0 0 0 55.61344H678.28736a27.81184 27.81184 0 0 0 0.00512-55.61344z" p-id="2430"></path><path d="M511.45216 68.76672c-245.31968 0-444.90752 199.58784-444.90752 444.90752s199.58784 444.90752 444.90752 444.90752c245.31456 0 444.90752-199.58784 444.90752-444.90752-0.00512-245.31968-199.59296-444.90752-444.90752-444.90752z m0 834.19648c-214.66112 0-389.29408-174.63296-389.29408-389.29408 0-214.66112 174.63296-389.29408 389.29408-389.29408s389.28896 174.63296 389.28896 389.29408c0 214.66112-174.63296 389.29408-389.28896 389.29408z" p-id="2431"></path></svg>