<?xml version="1.0" standalone="no"?><!DOCTYPE svg PUBLIC "-//W3C//DTD SVG 1.1//EN" "http://www.w3.org/Graphics/SVG/1.1/DTD/svg11.dtd"><svg t="1506776359562" class="icon" style="" viewBox="0 0 1024 1024" version="1.1" xmlns="http://www.w3.org/2000/svg" p-id="3515" xmlns:xlink="http://www.w3.org/1999/xlink" width="32" height="32"><defs><style type="text/css"></style></defs><path d="M1024 512c0 96-211.2 307.2-512 307.2-294.4 0-512-204.8-512-307.2 0-102.4 217.6-307.2 512-307.2C812.8 204.8 1024 409.6 1024 512L1024 512zM512 262.4C377.6 262.4 268.8 371.2 268.8 512s108.8 249.6 249.6 249.6c134.4 0 249.6-115.2 249.6-249.6C761.6 371.2 646.4 262.4 512 262.4L512 262.4zM512 352C422.4 352 352 422.4 352 512c0 89.6 70.4 160 160 160 89.6 0 160-70.4 160-160C672 422.4 601.6 352 512 352L512 352zM512 352" p-id="3516"></path></svg>