<?xml version="1.0" standalone="no"?><!DOCTYPE svg PUBLIC "-//W3C//DTD SVG 1.1//EN" "http://www.w3.org/Graphics/SVG/1.1/DTD/svg11.dtd"><svg t="1506776409341" class="icon" style="" viewBox="0 0 1024 1024" version="1.1" xmlns="http://www.w3.org/2000/svg" p-id="4192" xmlns:xlink="http://www.w3.org/1999/xlink" width="32" height="32"><defs><style type="text/css"></style></defs><path d="M954.010973 520.444323l-31.149441 31.14944c-8.598842 8.598842-22.545482 8.598842-31.149441 0l-82.021062-82.025155c-20.708648 17.576307-43.964304 33.532721-69.919442 47.070039l31.963992 119.292943c3.145643 11.748578-3.828188 23.827685-15.576767 26.973328l-42.550095 11.404748c-11.748578 3.145643-23.827685-3.828188-26.977421-15.576767L657.253198 549.078477c-32.748868 9.598612-67.166749 16.907065-103.676267 19.871583v113.046682c0 12.163017-9.863648 22.025643-22.030759 22.025643h-44.047192c-12.167111 0-22.025643-9.863648-22.025643-22.025643V568.95006c-35.043121-2.845815-68.078515-9.810437-99.677187-18.779715l-27.197432 100.575649c-3.039219 11.228739-14.686491 17.893532-26.021653 14.885012l-41.043789-10.898211c-11.334139-3.00852-18.061354-14.550391-15.026228-25.783223l29.343305-108.500133c-26.480094-13.193487-50.237171-28.898167-71.469751-46.267766l-81.540108 81.540108c-8.602935 8.602935-22.545482 8.602935-31.149441 0l-31.14944-31.149441c-8.598842-8.598842-8.598842-22.545482 0-31.149441l84.007299-84.003206c-16.541745-24.77936-28.523637-51.483558-34.633798-79.681783-3.964288-6.612605-6.859221-13.915941-6.859222-22.184255 0-24.330128 19.72218-44.056402 44.052309-44.056402s44.052309 19.726274 44.052308 44.056402c17.250896 98.976222 149.794631 176.204118 308.365137 176.204117 158.565389 0 291.118334-77.227895 308.365136-176.204117 0-24.330128 19.72218-44.056402 44.047192-44.056402 24.330128 0 44.056402 19.726274 44.056402 44.056402 0 8.268314-2.89391 15.567557-6.859222 22.180161-5.630231 25.977651-16.448624 50.585095-31.030737 73.650417l85.906556 85.910649c8.602935 8.602935 8.602935 22.545482 0 31.149441z" p-id="4193"></path></svg>