<?xml version="1.0" standalone="no"?><!DOCTYPE svg PUBLIC "-//W3C//DTD SVG 1.1//EN" "http://www.w3.org/Graphics/SVG/1.1/DTD/svg11.dtd"><svg t="1526959774252" class="icon" style="" viewBox="0 0 1025 1024" version="1.1" xmlns="http://www.w3.org/2000/svg" p-id="3105" xmlns:xlink="http://www.w3.org/1999/xlink" width="30.029296875" height="30"><defs><style type="text/css"></style></defs><path d="M852.81189424 166.71324093C760.09732283 77.43254358 639.91176832 25.92444865 512.85846852 25.92444865S262.18574014 77.43254358 172.90504279 166.71324093c-188.86301409 188.86301409-188.86301409 491.04383738 0 679.90685148C262.18574014 935.90078976 385.80516777 987.40888469 512.85846852 987.40888469s250.67272836-51.50809492 339.95342572-140.78879228c188.86301409-188.86301409 188.86301409-491.04383738 0-679.90685148m-48.0742218 631.83262967C725.7585935 877.52494954 622.74240366 918.73142511 512.85846852 918.73142511s-212.90012499-41.20647556-291.87920394-120.18555451c-161.39203007-161.39203007-161.39203007-422.36637687 0-583.75840786C299.95834352 135.8083838 402.97453243 94.60190823 512.85846852 94.60190823s212.90012499 41.20647556 291.87920392 120.18555451c161.39203007 161.39203007 161.39203007 422.36637687 0 583.75840786" p-id="3106"></path><path d="M547.19719783 472.32793641V297.2004148c0-20.60323778-13.73549154-34.33873026-34.33872931-34.33873026s-34.33873026 13.73549154-34.33873026 34.33873026V472.32793641H303.39221571c-20.60323778 0-34.33873026 13.73549154-34.33872932 34.33873026 0 10.30161935 3.43387312 17.16936466 10.30161842 24.0371109s13.73549154 10.30161935 24.0371109 10.30161936H478.51973826v175.12752161c0 10.30161935 3.43387312 17.16936466 10.30161936 24.0371109 6.86774624 6.86774624 13.73549154 10.30161935 24.0371109 10.30161936 20.60323778 0 34.33873026-13.73549154 34.33872931-34.33873026V541.00539693h175.12752255c20.60323778 0 34.33873026-13.73549154 34.33873025-34.33873026s-13.73549154-34.33873026-34.33873025-34.33873026H547.19719783z" p-id="3107"></path></svg>
