<?xml version="1.0" standalone="no"?><!DOCTYPE svg PUBLIC "-//W3C//DTD SVG 1.1//EN" "http://www.w3.org/Graphics/SVG/1.1/DTD/svg11.dtd"><svg t="1526457306967" class="icon" style="" viewBox="0 0 1024 1024" version="1.1" xmlns="http://www.w3.org/2000/svg" p-id="28069" xmlns:xlink="http://www.w3.org/1999/xlink" width="30" height="30"><defs><style type="text/css"></style></defs><path d="M392.704 325.12L326.656 399.872h505.344c17.92 0 31.744 14.336 31.744 31.744 0 17.92-14.336 31.744-31.744 31.744H170.496c-10.24 0-14.336-13.312-5.632-18.944l214.528-135.68c9.728-5.632 20.992 7.168 13.312 16.384zM631.296 698.88l65.536-74.752H192c-17.92 0-31.744-14.336-31.744-31.744 0-17.92 14.336-31.744 31.744-31.744h661.504c10.24 0 14.336 13.312 5.632 18.944l-214.528 135.68c-9.728 5.632-20.992-7.168-13.312-16.384z" fill="" p-id="28070"></path></svg>