<?xml version="1.0" standalone="no"?><!DOCTYPE svg PUBLIC "-//W3C//DTD SVG 1.1//EN" "http://www.w3.org/Graphics/SVG/1.1/DTD/svg11.dtd"><svg t="1505286976045" class="icon" style="" viewBox="0 0 1024 1024" version="1.1" xmlns="http://www.w3.org/2000/svg" p-id="1847" xmlns:xlink="http://www.w3.org/1999/xlink" width="32" height="32"><defs><style type="text/css"></style></defs><path d="M691.116 250.975c-121.528-121.568-318.611-121.568-440.181 0s-121.569 318.652 0 440.181c121.551 121.561 318.626 121.561 440.181 0.013v-0.013c121.56-121.542 121.56-318.617 0.013-440.168 0-0.004-0.013-0.004-0.013-0.013zM183.202 758.889c-158.936-158.98-158.936-416.701 0-575.687 158.972-158.937 416.679-158.937 575.687 0 158.945 158.986 158.945 416.705 0 575.687-159.008 158.936-416.71 158.936-575.686 0h-0.001z m760.482 184.835c-21.732 21.701-56.936 21.701-78.65 0l-78.611-78.65c-21.706-21.719-21.706-56.91 0-78.615 21.701-21.7 56.891-21.7 78.611 0l78.65 78.615c21.755 21.754 21.755 56.936 0 78.65z" p-id="1848"></path></svg>