<?xml version="1.0" standalone="no"?><!DOCTYPE svg PUBLIC "-//W3C//DTD SVG 1.1//EN" "http://www.w3.org/Graphics/SVG/1.1/DTD/svg11.dtd"><svg t="1569319730011" class="icon" viewBox="0 0 1024 1024" version="1.1" xmlns="http://www.w3.org/2000/svg" p-id="2077" width="22" height="22" xmlns:xlink="http://www.w3.org/1999/xlink"><defs><style type="text/css"></style></defs><path d="M512 160c-194.4 0-352 157.6-352 352 0 194.416 157.6 352 352 352s352-157.6 352-352C864 317.584 706.4 160 512 160zM727.072 410.864 485.76 647.184c-1.216 2.016-2.688 4.064-4.672 6.048l-11.312 11.312c-6.256 6.256-13.616 9.024-16.432 6.208l-114.944-120.288c-2.816-2.816-0.048-10.16 6.208-16.4l11.312-11.328c6.24-6.256 13.6-9.024 16.416-6.208l86.16 90.144 234.64-229.776c6.24-6.256 16.368-6.256 22.624 0l11.312 11.312C733.328 394.48 733.328 404.608 727.072 410.864z" p-id="2078"></path></svg>