<?xml version="1.0" standalone="no"?><!DOCTYPE svg PUBLIC "-//W3C//DTD SVG 1.1//EN" "http://www.w3.org/Graphics/SVG/1.1/DTD/svg11.dtd"><svg t="1526454104714" class="icon" style="" viewBox="0 0 1024 1024" version="1.1" xmlns="http://www.w3.org/2000/svg" p-id="13026" xmlns:xlink="http://www.w3.org/1999/xlink" width="30" height="30"><defs><style type="text/css"></style></defs><path d="M950.541965 473.840912c-5.806239 16.774035-17.799388 23.553439-35.172057 22.234397-6.554276-0.497327-13.184277 0.11461-19.767206-0.12689-15.84078-0.581238-27.152407-11.527544-27.341718-27.314089-0.328481-27.508517-0.318248-55.027268 0-82.535785 0.182149-15.731286 11.589966-26.759457 27.360138-27.284413 6.583952-0.218988 13.214976 0.38374 19.767206-0.127913 17.398252-1.357927 29.348422 5.473665 35.152615 22.236444C950.541965 411.895071 950.541965 442.86748 950.541965 473.840912z" p-id="13027"></path><path d="M69.536726 380.921639c5.799076-16.769942 17.780969-23.555485 35.150568-22.23542 6.551206 0.497327 13.177114-0.086981 19.759019 0.127913 15.673981 0.512676 27.232225 11.669784 27.406187 27.287483 0.304945 27.497261 0.291642 55.002708-0.036839 82.498946-0.187265 15.658631-11.678994 26.801413-27.352975 27.343765-6.580882 0.228197-13.205766-0.354064-19.759019 0.1361-17.358343 1.299599-29.338189-5.505387-35.165918-22.240537C69.536726 442.86748 69.536726 411.895071 69.536726 380.921639z" p-id="13028"></path><path d="M785.53384 688.744423c0-36.317137 0.083911-71.278393-0.023536-106.23965-0.107447-34.981722-16.740266-54.209646-52.190663-59.697637-2.046612-15.821337-4.177136-31.918967-6.203282-48.0299-5.216815-41.49302-10.169617-83.020832-15.653515-124.478036-3.520173-26.613124-26.52512-46.901193-53.322439-46.947242-98.639554-0.167822-197.280132-0.163729-295.919686 0.010233-27.26804 0.048095-50.202379 20.439518-53.688783 47.509037-7.098675 55.112202-13.863752 110.268406-20.795629 165.402097-0.280386 2.230808-0.86367 4.423753-1.27504 6.482645-36.169781 6.15007-51.826366 24.638143-51.92665 61.158918-0.085958 31.254841-0.002047 62.509682 0.00614 93.765547 0.001023 3.369747 0 6.738471 0 10.703783-11.045567 0-21.37175 0.901533-31.474852-0.217964-14.125719-1.564635-23.134907-13.290701-23.158443-28.529777-0.083911-54.194296-0.067538-108.389616-0.065492-162.583912 0.00307-99.500155 0.01842-199.00031 0.038886-298.500465 0.007163-37.396725 22.585391-60.030212 59.894112-60.033281 179.788759-0.01842 359.577518-0.028653 539.366278-0.041956 38.988989-0.00307 61.056588 22.204721 61.060681 61.46591 0.013303 152.547325 0.021489 305.095673 0.033769 457.642998 0.002047 20.282952-11.010775 31.187303-31.476899 31.159674C801.35927 688.736237 793.960767 688.744423 785.53384 688.744423z" p-id="13029"></path><path d="M785.173636 798.837844c0 18.282389 0.019443 35.176151-0.005117 52.069913-0.028653 19.272949-11.183713 30.517037-30.353308 30.553876-16.626679 0.031722-33.253358 0.069585-49.879014-0.052189-18.272155-0.134053-29.376051-11.292184-29.472242-29.580712-0.090051-17.185404-0.019443-34.371832-0.019443-52.271504-110.217241 0-220.052788 0-330.772472 0 0 16.419971 0.037862 32.676214-0.00921 48.931432-0.065492 22.908756-10.116405 32.918737-33.114189 32.973996-15.766079 0.037862-31.534204 0.082888-47.299259-0.055259-18.178011-0.158612-29.265534-11.481496-29.330002-29.772071-0.059352-16.625656-0.052189-33.250288-0.096191-49.875944-0.001023-0.542352-0.25378-1.084705-0.713244-2.919493-7.837502 0-16.021905 0.054235-24.204262-0.011256-18.857487-0.150426-29.985942-11.250228-30.049387-29.92966-0.025583-7.453762-0.019443-14.906501 0.028653-22.360264 0.12075-18.848277 11.089569-29.834492 30.03813-29.844725 88.865957-0.050142 177.731914-0.054235 266.597871-0.053212 110.366643 0.001023 220.733287 0.019443 331.09993 0.038886 22.378683 0.004093 32.55137 10.178827 32.577976 32.536021 0.008186 7.166213 0.153496 14.337543-0.034792 21.49864-0.436952 16.667611-11.613502 27.731598-28.405957 28.091802C803.227828 798.98827 794.688337 798.837844 785.173636 798.837844z" p-id="13030"></path><path d="M509.602394 523.526521c-48.163953 0.001023-96.327906 0.00307-144.491859 0-11.861142-0.001023-13.308097-1.904373-12.205996-13.57825 4.360308-46.206368 8.584516-92.426039 12.738116-138.65185 1.003863-11.168364 2.175549-12.518105 13.645788-12.520151 87.440491-0.01535 174.880983-0.014326 262.321474 0.001023 10.333346 0.002047 11.883655 1.666966 12.781094 11.609409 4.250814 47.080272 8.585539 94.15338 12.970406 141.221372 0.86981 9.331529-1.160429 11.888771-10.685363 11.896958C607.650477 523.549034 558.626947 523.525498 509.602394 523.526521z" p-id="13031"></path><path d="M730.075761 619.767446c2.512217 31.211862-9.525957 42.066071-41.632189 41.967834-30.833239-0.095167-41.070394-10.979052-41.083697-41.315988-0.014326-31.381731 10.06524-42.072211 42.166355-41.950438C719.080336 578.580394 732.589001 588.149331 730.075761 619.767446z" p-id="13032"></path><path d="M331.228867 579.01837c30.875195-2.498914 41.583071 9.850345 41.47767 41.23924-0.102331 30.616298-9.889231 41.529859-41.791825 41.464367-30.191626-0.062422-41.612747-9.732665-41.457204-41.804105C289.607934 589.218686 299.296597 576.554248 331.228867 579.01837z" p-id="13033"></path><path d="M510.843664 578.985624c24.042579 0.004093 48.087205 0.179079 72.126714-0.106424 6.957459-0.082888 9.701966 2.110057 9.575076 9.359158-0.349971 19.998473 1.687432 17.888416-18.043958 17.885346-45.222971-0.008186-90.446965-0.195451-135.666866 0.168846-8.528234 0.068562-11.6749-2.269693-11.390421-11.104919 0.521886-16.239869 0.070608-16.229636 16.425088-16.21224C466.193745 578.99995 488.518193 578.981531 510.843664 578.985624z" p-id="13034"></path><path d="M510.275729 634.082476c24.044626 0 48.091298 0.204661 72.130807-0.124843 7.192819-0.098237 10.356882 1.7519 10.157337 9.602705-0.497327 19.529799 1.593288 17.610076-17.515932 17.61724-45.226041 0.016373-90.452081 0.00921-135.677099 0.002047-11.69639-0.002047-11.69639-0.017396-11.70867-12.066827-0.001023-1.14508-0.002047-2.290159 0-3.435239 0.021489-11.567453 0.021489-11.586896 11.341303-11.593036C462.760552 634.073266 486.517629 634.082476 510.275729 634.082476z" p-id="13035"></path></svg>