<?xml version="1.0" standalone="no"?><!DOCTYPE svg PUBLIC "-//W3C//DTD SVG 1.1//EN" "http://www.w3.org/Graphics/SVG/1.1/DTD/svg11.dtd"><svg t="1526454431282" class="icon" style="" viewBox="0 0 1039 1024" version="1.1" xmlns="http://www.w3.org/2000/svg" p-id="18511" xmlns:xlink="http://www.w3.org/1999/xlink" width="30.439453125" height="30"><defs><style type="text/css"></style></defs><path d="M1026.558209 589.718397l-143.873688 0c-6.856001 0-12.381733 5.525732-12.381733 12.381733l0 27.62866L313.124813 629.72879c41.136005 20.670331 69.378635 63.136604 69.378635 112.254222l358.251624 0 0 46.150095c0 1.841911-0.61397 3.581493-1.841911 4.911762l-14.325972 16.270211c-1.22794 1.330269-1.841911 3.069851-1.841911 4.911762l0 10.335165c0 4.093135 3.274508 7.367643 7.367643 7.367643l10.539822 0L776.672329 831.929649l10.539822 0c4.093135 0 7.367643-3.274508 7.367643-7.367643l0-10.335165c0-1.841911-0.61397-3.581493-1.841911-4.911762l-14.325972-16.270211c-1.22794-1.330269-1.841911-3.069851-1.841911-4.911762l0-46.150095 169.660438 0c13.20036 0 23.944839-10.744479 23.944839-23.944839l0-61.397022 56.280604 0c6.856001 0 12.381733-5.525732 12.381733-12.381733l0-42.05696C1038.939942 595.244129 1033.41421 589.718397 1026.558209 589.718397z" p-id="18512"></path><path d="M794.682123 182.758469c0-13.20036-10.744479-23.944839-23.944839-23.944839L40.010393 158.81363c-13.20036 0-23.944839 10.744479-23.944839 23.944839l0 410.950734 778.616568 0L794.682123 182.758469z" p-id="18513"></path><path d="M256.741881 652.138703c-49.526931 0-89.741981 40.215049-89.741981 89.844309s40.215049 89.844309 89.741981 89.844309c49.62926 0 89.844309-40.215049 89.844309-89.844309S306.37114 652.138703 256.741881 652.138703z" p-id="18514"></path><path d="M200.461277 629.72879 16.065554 629.72879l0 88.309383c0 13.20036 10.744479 23.944839 23.944839 23.944839l91.072249 0C131.082642 692.865394 159.325272 650.399121 200.461277 629.72879z" p-id="18515"></path></svg>